<svg viewBox="0 0 400 400" xmlns="http://www.w3.org/2000/svg">
  <defs>
    <linearGradient id="g6" x1="0" y1="0" x2="1" y2="1">
      <stop offset="0%" stop-color="#ffcf6a"/><stop offset="100%" stop-color="#ff2d2d"/>
    </linearGradient>
  </defs>
  <circle cx="200" cy="200" r="190" fill="#0a0d14" stroke="#ffcf6a" stroke-opacity="0.2" stroke-width="2"/>
  <!-- vertical pipe -->
  <path d="M200 90 L200 300" stroke="url(#g6)" stroke-width="10" stroke-linecap="round"/>
  <!-- shower head -->
  <circle cx="200" cy="95" r="22" fill="none" stroke="#fff" stroke-width="7"/>
  <path d="M182 108 L172 128 M191 116 L184 138 M200 118 L200 142 M209 116 L216 138 M218 108 L228 128"
        stroke="#fff" stroke-width="4" stroke-linecap="round" opacity="0.85"/>
  <!-- pull handle -->
  <path d="M200 150 h34" stroke="#ffcf6a" stroke-width="7" stroke-linecap="round"/>
  <circle cx="240" cy="150" r="8" fill="#ffcf6a"/>
  <!-- eyewash basin arms -->
  <path d="M200 235 q -46 0 -50 30" fill="none" stroke="#fff" stroke-width="7" stroke-linecap="round"/>
  <path d="M200 235 q 46 0 50 30" fill="none" stroke="#fff" stroke-width="7" stroke-linecap="round"/>
  <circle cx="150" cy="268" r="9" fill="none" stroke="#ff5b1f" stroke-width="4"/>
  <circle cx="250" cy="268" r="9" fill="none" stroke="#ff5b1f" stroke-width="4"/>
  <!-- base -->
  <ellipse cx="200" cy="305" rx="44" ry="10" fill="none" stroke="url(#g6)" stroke-width="7"/>
</svg>
